<svg version="1.1" xmlns="http://www.w3.org/2000/svg" viewBox="-257.0239974975586 -3057.1521057128903 5370.88046875 3377.6641174316405"><desc>Created with Snap</desc><defs></defs><g><rect x="-257.0239974975586" y="-3057.1521057128903" width="5370.88046875" height="3377.6641174316405" style="" fill="#37515f"></rect><g transform="matrix(53.1368,0,0,53.1368,1578.2413,-2749.9644)"><g display="none"><rect x="-247.333" y="-144.651" display="inline" fill="#ffffff" width="473.333" height="236" style=""></rect></g><g display="none"><g display="inline"><g><g><rect x="2.012" y="2.012" transform="matrix(0.7071 -0.7071 0.7071 0.7071 -2.8452 6.869)" fill="#ffffff" width="9.714" height="9.714" style=""></rect></g><g><rect x="4.585" y="4.585" transform="matrix(0.7071 -0.7071 0.7071 0.7071 -2.8452 6.869)" fill="#ffffff" width="4.568" height="4.568" style=""></rect></g></g><g><g><rect x="20.274" y="2.012" transform="matrix(0.7071 -0.7071 0.7071 0.7071 2.5036 19.7822)" width="9.714" height="9.714" style="" fill="#ffffff"></rect></g><g><rect x="22.847" y="4.585" transform="matrix(0.7071 -0.7071 0.7071 0.7071 2.5036 19.7822)" fill="#ffffff" width="4.568" height="4.568" style=""></rect></g></g></g><g display="inline"><g><g><rect x="2.012" y="20.274" transform="matrix(0.7071 -0.7071 0.7071 0.7071 -15.7585 12.2178)" fill="#ffffff" width="9.714" height="9.714" style=""></rect></g><g><rect x="4.585" y="22.847" transform="matrix(0.7071 -0.7071 0.7071 0.7071 -15.7585 12.2178)" fill="#ffffff" width="4.568" height="4.568" style=""></rect></g></g><g><g><rect x="20.274" y="20.274" transform="matrix(0.7071 -0.7071 0.7071 0.7071 -10.4096 25.131)" width="9.714" height="9.714" style="" fill="#ffffff"></rect></g><g><rect x="22.847" y="22.847" transform="matrix(0.7071 -0.7071 0.7071 0.7071 -10.4096 25.131)" fill="#ffffff" width="4.568" height="4.568" style=""></rect></g></g></g></g><g><g><rect x="2.012" y="2.012" transform="matrix(0.7071 -0.7071 0.7071 0.7071 -2.8452 6.869)" width="9.714" height="9.714" style="" fill="#ffffff"></rect><rect x="20.274" y="2.012" transform="matrix(0.7071 -0.7071 0.7071 0.7071 2.5036 19.7822)" width="9.714" height="9.714" style="" fill="#ffffff"></rect><rect x="2.012" y="20.274" transform="matrix(0.7071 -0.7071 0.7071 0.7071 -15.7585 12.2178)" width="9.714" height="9.714" style="" fill="#ffffff"></rect><rect x="20.274" y="20.274" transform="matrix(0.7071 -0.7071 0.7071 0.7071 -10.4096 25.131)" width="9.714" height="9.714" style="" fill="#ffffff"></rect></g></g><g display="none"><g display="inline"><path fill="#ffffff" d="M6.869,1.414l5.455,5.455l-5.455,5.455L1.414,6.869L6.869,1.414 M6.869,0L0,6.869l6.869,6.869l6.869-6.869    L6.869,0L6.869,0z" style=""></path></g><g display="inline"><path fill="#ffffff" d="M6.869,5.053l1.816,1.816L6.869,8.685L5.053,6.869L6.869,5.053 M6.869,3.639l-3.23,3.23l3.23,3.23    l3.23-3.23L6.869,3.639L6.869,3.639z" style=""></path></g><g display="inline"><path fill="#ffffff" d="M25.131,1.414l5.455,5.455l-5.455,5.455l-5.455-5.455L25.131,1.414 M25.131,0l-6.869,6.869l6.869,6.869    L32,6.869L25.131,0L25.131,0z" style=""></path></g><g display="inline"><path fill="#ffffff" d="M25.131,5.053l1.816,1.816l-1.816,1.816l-1.816-1.816L25.131,5.053 M25.131,3.639l-3.23,3.23l3.23,3.23    l3.23-3.23L25.131,3.639L25.131,3.639z" style=""></path></g><g display="inline"><path fill="#ffffff" d="M6.869,19.676l5.455,5.455l-5.455,5.455l-5.455-5.455L6.869,19.676 M6.869,18.262L0,25.131L6.869,32    l6.869-6.869L6.869,18.262L6.869,18.262z" style=""></path></g><g display="inline"><path fill="#ffffff" d="M6.869,23.315l1.816,1.816l-1.816,1.816l-1.816-1.816L6.869,23.315 M6.869,21.901l-3.23,3.23l3.23,3.23    l3.23-3.23L6.869,21.901L6.869,21.901z" style=""></path></g><g display="inline"><path fill="#ffffff" d="M25.131,19.676l5.455,5.455l-5.455,5.455l-5.455-5.455L25.131,19.676 M25.131,18.262l-6.869,6.869    L25.131,32L32,25.131L25.131,18.262L25.131,18.262z" style=""></path></g><g display="inline"><path fill="#ffffff" d="M25.131,23.315l1.816,1.816l-1.816,1.816l-1.816-1.816L25.131,23.315 M25.131,21.901l-3.23,3.23l3.23,3.23    l3.23-3.23L25.131,21.901L25.131,21.901z" style=""></path></g></g><g display="none"><g display="inline"><rect x="2.512" y="2.512" transform="matrix(0.7071 -0.7071 0.7071 0.7071 -2.8453 6.8691)" fill="#ffffff" width="8.715" height="8.715" style=""></rect><g><path d="M6.869,1.414l5.455,5.455l-5.455,5.455L1.414,6.869L6.869,1.414 M6.869,0L0,6.869l6.869,6.869l6.869-6.869L6.869,0     L6.869,0z" style="" fill="#ffffff"></path></g></g><g display="inline"><rect x="2.512" y="20.774" transform="matrix(0.7071 -0.7071 0.7071 0.7071 -15.7583 12.2179)" fill="#ffffff" width="8.715" height="8.715" style=""></rect><g><path d="M6.869,19.676l5.455,5.455l-5.455,5.455l-5.455-5.455L6.869,19.676 M6.869,18.262L0,25.131L6.869,32l6.869-6.869     L6.869,18.262L6.869,18.262z" style="" fill="#ffffff"></path></g></g><g display="inline"><rect x="5.085" y="5.085" transform="matrix(0.7071 -0.7071 0.7071 0.7071 -2.8453 6.8691)" fill="#ffffff" width="3.569" height="3.569" style=""></rect><g><path d="M6.869,5.053l1.816,1.816L6.869,8.685L5.053,6.869L6.869,5.053 M6.869,3.639l-3.23,3.23l3.23,3.23l3.23-3.23L6.869,3.639     L6.869,3.639z" style="" fill="#ffffff"></path></g></g><g display="inline"><rect x="20.774" y="2.512" transform="matrix(0.7071 -0.7071 0.7071 0.7071 2.5034 19.7821)" fill="#ffffff" width="8.715" height="8.715" style=""></rect><path fill="#ffffff" d="M25.131,1.414l5.455,5.455l-5.455,5.455l-5.455-5.455L25.131,1.414 M25.131,0l-6.869,6.869l6.869,6.869    L32,6.869L25.131,0L25.131,0z" style=""></path></g><g display="inline"><rect x="23.347" y="5.085" transform="matrix(0.7071 -0.7071 0.7071 0.7071 2.5034 19.7821)" fill="#ffffff" width="3.569" height="3.569" style=""></rect><g><path d="M25.131,5.053l1.816,1.816l-1.816,1.816l-1.816-1.816L25.131,5.053 M25.131,3.639l-3.23,3.23l3.23,3.23l3.23-3.23     L25.131,3.639L25.131,3.639z" style="" fill="#ffffff"></path></g></g><g display="inline"><rect x="5.085" y="23.347" transform="matrix(0.7071 -0.7071 0.7071 0.7071 -15.7583 12.2179)" fill="#ffffff" width="3.569" height="3.569" style=""></rect><g><path d="M6.869,23.315l1.816,1.816l-1.816,1.816l-1.816-1.816L6.869,23.315 M6.869,21.901l-3.23,3.23l3.23,3.23l3.23-3.23     L6.869,21.901L6.869,21.901z" style="" fill="#ffffff"></path></g></g><g display="inline"><rect x="20.774" y="20.774" transform="matrix(0.7071 -0.7071 0.7071 0.7071 -10.4095 25.1309)" fill="#ffffff" width="8.715" height="8.715" style=""></rect><path fill="#ffffff" d="M25.131,19.676l5.455,5.455l-5.455,5.455l-5.455-5.455L25.131,19.676 M25.131,18.262l-6.869,6.869    L25.131,32L32,25.131L25.131,18.262L25.131,18.262z" style=""></path></g><g display="inline"><rect x="23.347" y="23.347" transform="matrix(0.7071 -0.7071 0.7071 0.7071 -10.4095 25.1309)" fill="#ffffff" width="3.569" height="3.569" style=""></rect><g><path d="M25.131,23.315l1.816,1.816l-1.816,1.816l-1.816-1.816L25.131,23.315 M25.131,21.901l-3.23,3.23l3.23,3.23l3.23-3.23     L25.131,21.901L25.131,21.901z" style="" fill="#ffffff"></path></g></g></g><desc>Created with Snap</desc><defs></defs></g><g><g transform="matrix(1.024,0,0,-1.024,0,0)"><path d="M419 636Q464 636 512 628Q561 620 589 606Q598 603 600 598Q603 594 604 583L616 453Q616 450 611 449Q606 448 605 452Q576 530 517 571Q459 612 380 612Q276 612 217 539Q158 466 158 343Q158 251 190 174Q223 97 280 52Q338 7 409 7Q544 7 614 175Q615 179 620 178Q626 177 626 174L611 46Q609 34 606 30Q604 27 595 23Q508 -12 410 -12Q288 -12 207 36Q126 85 87 160Q49 235 49 316Q49 410 100 483Q152 556 237 596Q322 636 419 636ZM1162 62L1164 63Q1167 63 1169 58Q1171 53 1168 51L1037 -12L1033 -13Q1023 -13 1015 9Q1007 32 1006 70Q936 -11 858 -11Q804 -11 774 22Q744 56 744 114L744 263Q744 331 713 331Q703 331 685 323L684 323Q680 323 678 328Q676 333 679 335L806 394L810 395Q814 395 819 391Q824 387 824 384L824 157Q824 46 908 46Q933 46 959 58Q985 70 1006 91L1006 263Q1006 298 998 314Q991 331 975 331Q966 331 947 323L946 323Q942 323 940 328Q938 334 942 335L1068 394Q1070 395 1073 395Q1077 395 1082 391Q1087 387 1087 384L1087 113Q1087 78 1094 64Q1101 50 1117 50Q1129 50 1162 62ZM1461 396Q1484 396 1505 381Q1526 366 1526 345Q1526 326 1514 314Q1503 302 1483 302Q1470 302 1461 307Q1453 313 1444 323Q1435 332 1428 336Q1421 341 1411 341Q1400 341 1387 332Q1375 324 1349 297L1349 81Q1349 53 1357 38Q1365 24 1384 18Q1403 12 1440 12Q1444 12 1444 6Q1444 0 1440 0Q1407 0 1387 1L1308 2L1250 1Q1236 0 1211 0Q1208 0 1208 6Q1208 12 1211 12Q1245 12 1256 26Q1267 40 1267 81L1267 272Q1267 304 1259 319Q1252 334 1235 334Q1220 334 1185 319L1184 319Q1180 319 1178 324Q1176 329 1179 330L1310 394Q1316 396 1317 396Q1327 396 1337 374Q1347 353 1349 318Q1388 362 1414 379Q1440 396 1461 396ZM1835 396Q1858 396 1879 381Q1900 366 1900 345Q1900 326 1888 314Q1877 302 1857 302Q1844 302 1835 307Q1827 313 1818 323Q1809 332 1802 336Q1795 341 1785 341Q1774 341 1761 332Q1749 324 1723 297L1723 81Q1723 53 1731 38Q1739 24 1758 18Q1777 12 1814 12Q1818 12 1818 6Q1818 0 1814 0Q1781 0 1761 1L1682 2L1624 1Q1610 0 1585 0Q1582 0 1582 6Q1582 12 1585 12Q1619 12 1630 26Q1641 40 1641 81L1641 272Q1641 304 1633 319Q1626 334 1609 334Q1594 334 1559 319L1558 319Q1554 319 1552 324Q1550 329 1553 330L1684 394Q1690 396 1691 396Q1701 396 1711 374Q1721 353 1723 318Q1762 362 1788 379Q1814 396 1835 396ZM1962 0Q1959 0 1959 6Q1959 12 1962 12Q1996 12 2007 26Q2018 40 2018 81L2018 263Q2018 297 2011 312Q2004 328 1987 328Q1972 328 1948 316L1947 316Q1943 316 1941 321Q1939 326 1942 328L2086 395L2089 396Q2093 396 2097 391Q2102 387 2102 384L2102 363Q2100 321 2100 264L2100 81Q2100 40 2111 26Q2123 12 2157 12Q2160 12 2160 6Q2160 0 2157 0Q2132 0 2117 1L2059 2L2001 1Q1987 0 1962 0ZM2054 501Q2028 501 2013 515Q1999 529 1999 555Q1999 580 2013 593Q2028 607 2054 607Q2079 607 2093 593Q2107 580 2107 555Q2107 529 2093 515Q2080 501 2054 501ZM2417 -12Q2352 -12 2306 16Q2261 45 2239 90Q2217 136 2217 186Q2217 249 2251 296Q2285 344 2338 369Q2392 395 2447 395Q2494 395 2532 376Q2570 357 2570 325Q2570 308 2557 295Q2544 283 2521 283Q2483 283 2466 328Q2456 353 2445 363Q2434 374 2410 374Q2363 374 2335 331Q2308 289 2308 218Q2308 135 2346 83Q2385 32 2467 32Q2495 32 2517 39Q2539 46 2565 61L2566 61Q2569 61 2571 58Q2574 55 2572 53Q2535 20 2499 4Q2463 -12 2417 -12ZM3097 62L3099 63Q3102 63 3104 58Q3106 53 3103 51L2972 -12L2968 -13Q2958 -13 2950 9Q2942 32 2941 70Q2871 -11 2793 -11Q2739 -11 2709 22Q2679 56 2679 114L2679 263Q2679 331 2648 331Q2638 331 2620 323L2619 323Q2615 323 2613 328Q2611 333 2614 335L2741 394L2745 395Q2749 395 2754 391Q2759 387 2759 384L2759 157Q2759 46 2843 46Q2868 46 2894 58Q2920 70 2941 91L2941 263Q2941 298 2933 314Q2926 331 2910 331Q2901 331 2882 323L2881 323Q2877 323 2875 328Q2873 334 2877 335L3003 394Q3005 395 3008 395Q3012 395 3017 391Q3022 387 3022 384L3022 113Q3022 78 3029 64Q3036 50 3052 50Q3064 50 3097 62ZM3142 0Q3139 0 3139 6Q3139 12 3142 12Q3175 12 3187 26Q3199 41 3199 81L3199 592Q3199 627 3192 642Q3186 658 3169 658Q3154 658 3129 646L3128 646Q3124 646 3122 651Q3120 656 3122 658L3263 724L3267 725Q3271 725 3276 721Q3282 717 3282 714L3282 81Q3282 40 3293 26Q3304 12 3338 12Q3341 12 3341 6Q3341 0 3338 0Q3314 0 3299 1L3240 2L3182 1Q3167 0 3142 0ZM3863 62L3865 63Q3868 63 3870 58Q3872 53 3869 51L3738 -12L3734 -13Q3724 -13 3716 9Q3708 32 3707 70Q3637 -11 3559 -11Q3505 -11 3475 22Q3445 56 3445 114L3445 263Q3445 331 3414 331Q3404 331 3386 323L3385 323Q3381 323 3379 328Q3377 333 3380 335L3507 394L3511 395Q3515 395 3520 391Q3525 387 3525 384L3525 157Q3525 46 3609 46Q3634 46 3660 58Q3686 70 3707 91L3707 263Q3707 298 3699 314Q3692 331 3676 331Q3667 331 3648 323L3647 323Q3643 323 3641 328Q3639 334 3643 335L3769 394Q3771 395 3774 395Q3778 395 3783 391Q3788 387 3788 384L3788 113Q3788 78 3795 64Q3802 50 3818 50Q3830 50 3863 62ZM4375 12Q4378 12 4378 6Q4378 0 4375 0Q4350 0 4336 1L4278 2L4221 1Q4206 0 4181 0Q4178 0 4178 6Q4178 12 4181 12Q4215 12 4226 26Q4237 40 4237 81L4237 231Q4237 287 4216 313Q4196 340 4152 340Q4126 340 4099 328Q4072 316 4050 296L4050 81Q4050 40 4061 26Q4072 12 4106 12Q4109 12 4109 6Q4109 0 4106 0Q4081 0 4067 1L4009 2L3951 1Q3937 0 3912 0Q3909 0 3909 6Q3909 12 3912 12Q3946 12 3957 26Q3968 40 3968 81L3968 272Q3968 304 3960 319Q3953 334 3936 334Q3921 334 3886 319L3885 319Q3881 319 3879 324Q3877 329 3880 330L4011 394Q4017 396 4018 396Q4028 396 4038 373Q4049 351 4050 315Q4120 398 4202 398Q4257 398 4288 364Q4319 331 4319 274L4319 81Q4319 40 4330 26Q4341 12 4375 12ZM4506 334Q4506 303 4527 282Q4549 261 4590 238Q4626 218 4645 205Q4665 192 4679 170Q4694 148 4694 117Q4694 83 4677 54Q4660 25 4626 7Q4593 -11 4547 -11Q4492 -11 4446 17Q4440 23 4440 29L4438 121Q4438 124 4443 124Q4449 125 4450 123Q4467 73 4501 41Q4536 9 4575 9Q4600 9 4614 22Q4628 35 4628 61Q4628 99 4606 121Q4584 144 4542 166Q4508 184 4489 196Q4470 209 4456 230Q4443 252 4443 284Q4443 341 4484 369Q4526 397 4585 397Q4624 397 4665 382Q4674 378 4674 371Q4674 348 4673 335L4672 287Q4672 284 4666 284Q4660 284 4660 287Q4660 307 4644 328Q4628 350 4603 364Q4578 378 4552 378Q4506 378 4506 334Z" style="" fill="#ffffff"></path></g></g></g></svg>